<?xml version="1.0" encoding="UTF-8" standalone="no" ?>
<!DOCTYPE svg PUBLIC "-//W3C//DTD SVG 1.1//EN" "http://www.w3.org/Graphics/SVG/1.1/DTD/svg11.dtd">
<svg xmlns="http://www.w3.org/2000/svg" xmlns:xlink="http://www.w3.org/1999/xlink" version="1.1" width="500" height="500" viewBox="0 0 500 500" xml:space="preserve">
<desc>Created with Fabric.js 3.6.3</desc>
<defs>
</defs>
<g transform="matrix(1 0 0 1 253.06 322.54800000000006)" style=""  ><path fill="#858585" opacity="1" d="M-166.84-3.71L-166.84-11.16L-152.05-26.16L-129.70-26.16L-129.70-3.71ZM-166.84 33.42L-166.84 11.19L-129.70 11.19L-129.70 33.42L-114.91 33.42L-114.91-41.06L-159.49-41.06L-181.73-18.61L-181.73 33.42Z"/><path fill="#858585" opacity="1" d="M-66.50 33.42L-66.50-26.16L-40.64-26.16L-40.64-41.06L-107.46-41.06L-107.46-26.16L-81.40-26.16L-81.40 33.42Z"/><path fill="#858585" opacity="1" d="M-33.20-41.06L-33.20 33.42L30.00 33.42L30.00 18.53L-18.30 18.53L-18.30-41.06Z"/><path fill="#858585" opacity="1" d="M51.28-3.71L51.28-11.16L66.07-26.16L88.42-26.16L88.42-3.71ZM51.28 33.42L51.28 11.19L88.42 11.19L88.42 33.42L103.21 33.42L103.21-41.06L58.63-41.06L36.39-18.61L36.39 33.42Z"/><path fill="#858585" opacity="1" d="M173.33 33.42L180.67 26.08L180.67-3.82L173.33-11.26L128.74-11.26L128.74-26.16L165.88-26.16L165.88-18.71L180.67-18.71L180.67-33.50L173.33-41.06L121.19-41.06L113.85-33.50L113.85-1.58L121.19 3.74L165.88 3.74L165.88 18.53L128.74 18.53L128.74 11.19L113.85 11.19L113.85 26.08L121.19 33.42Z"/></g><g transform="matrix(1 0 0 1 250 380.91200000000003)" style=""  ><path fill="#858585" opacity="1" d="M-78.52 0.08L-78.52-0.69Q-78.52-1.70-78.27-2.59Q-78.02-3.48-77.41-4.13Q-76.80-4.79-75.77-5.18Q-74.73-5.56-73.16-5.56L-73.16-5.56L-72.63-5.56Q-71.62-5.56-70.68-5.44Q-69.73-5.31-68.81-5.07L-68.81-5.07L-68.81-2.66Q-69.33-2.81-69.86-2.91Q-70.38-3.02-70.89-3.08Q-71.40-3.15-71.87-3.18Q-72.33-3.21-72.70-3.21L-72.70-3.21Q-73.86-3.21-74.49-2.99Q-75.12-2.78-75.41-2.40Q-75.69-2.01-75.75-1.48Q-75.80-0.95-75.80-0.31L-75.80-0.31Q-75.80 0.33-75.75 0.86Q-75.69 1.39-75.41 1.79Q-75.12 2.18-74.49 2.39Q-73.86 2.61-72.70 2.61L-72.70 2.61Q-72.33 2.61-71.87 2.58Q-71.40 2.55-70.89 2.48Q-70.38 2.41-69.86 2.30Q-69.33 2.19-68.81 2.04L-68.81 2.04L-68.81 4.47Q-69.73 4.69-70.68 4.82Q-71.62 4.95-72.63 4.95L-72.63 4.95L-73.16 4.95Q-74.73 4.95-75.77 4.56Q-76.80 4.18-77.41 3.52Q-78.02 2.86-78.27 1.97Q-78.52 1.08-78.52 0.08L-78.52 0.08Z"/><path fill="#858585" opacity="1" d="M-62.39 4.65L-62.39 0.96L-66.27-4.67L-66.27-5.27L-63.65-5.27L-61.06-1.15L-58.45-5.27L-55.85-5.27L-55.85-4.67L-59.73 0.96L-59.73 4.65L-62.39 4.65Z"/><path fill="#858585" opacity="1" d="M-53.33 4.65L-53.33-5.27Q-52.06-5.41-50.66-5.49Q-49.26-5.56-47.91-5.56L-47.91-5.56L-47.50-5.56Q-46.26-5.56-45.44-5.33Q-44.63-5.09-44.14-4.69Q-43.65-4.29-43.46-3.75Q-43.27-3.21-43.27-2.60L-43.27-2.60L-43.27-2.31Q-43.27-1.66-43.65-1.12Q-44.04-0.59-45.03-0.32L-45.03-0.32Q-44.45-0.19-44.05 0.02Q-43.65 0.22-43.42 0.49Q-43.18 0.76-43.08 1.06Q-42.97 1.36-42.97 1.69L-42.97 1.69L-42.97 1.99Q-42.97 2.59-43.18 3.13Q-43.39 3.67-43.90 4.07Q-44.42 4.47-45.30 4.71Q-46.17 4.95-47.50 4.95L-47.50 4.95L-47.91 4.95Q-49.26 4.95-50.66 4.87Q-52.06 4.80-53.33 4.65L-53.33 4.65ZM-47.86-3.19L-47.86-3.19Q-48.40-3.19-49.17-3.17Q-49.93-3.14-50.67-3.06L-50.67-3.06L-50.67-1.42L-48.03-1.42Q-47.13-1.42-46.64-1.49Q-46.15-1.55-45.93-1.67Q-45.71-1.79-45.67-1.95Q-45.64-2.11-45.64-2.31L-45.64-2.31Q-45.64-2.48-45.68-2.65Q-45.72-2.81-45.94-2.94Q-46.15-3.06-46.61-3.13Q-47.06-3.19-47.86-3.19ZM-48.03 0.95L-50.67 0.95L-50.67 2.44Q-49.93 2.52-49.17 2.55Q-48.40 2.58-47.81 2.58L-47.81 2.58Q-46.92 2.58-46.43 2.51Q-45.93 2.44-45.69 2.32Q-45.44 2.19-45.39 2.03Q-45.34 1.87-45.34 1.69L-45.34 1.69Q-45.34 1.54-45.38 1.40Q-45.43 1.26-45.68 1.16Q-45.93 1.07-46.48 1.01Q-47.03 0.95-48.03 0.95L-48.03 0.95Z"/><path fill="#858585" opacity="1" d="M-30.38-5.27L-30.38-2.90L-37.20-2.90L-37.20-1.42L-31.86-1.42L-31.86 0.95L-37.20 0.95L-37.20 2.28L-30.38 2.28L-30.38 4.65L-39.86 4.65L-39.86-5.27L-30.38-5.27Z"/><path fill="#858585" opacity="1" d="M-17.22 4.65L-19.79 4.65L-21.78 1.54Q-22.58 1.54-23.32 1.53Q-24.06 1.51-24.77 1.39L-24.77 1.39L-24.77 4.65L-27.43 4.65L-27.43-5.27Q-26.16-5.41-24.76-5.49Q-23.36-5.56-22.01-5.56L-22.01-5.56L-21.60-5.56Q-20.36-5.56-19.54-5.30Q-18.73-5.04-18.24-4.60Q-17.75-4.16-17.56-3.56Q-17.37-2.97-17.37-2.31L-17.37-2.31L-17.37-1.71Q-17.37-0.78-17.74-0.02Q-18.11 0.74-19.05 1.16L-19.05 1.16L-17.22 4.06L-17.22 4.65ZM-21.99-3.19L-21.99-3.19Q-22.50-3.19-23.27-3.17Q-24.03-3.14-24.77-3.06L-24.77-3.06L-24.77-0.96Q-24.07-0.87-23.45-0.85Q-22.83-0.83-22.44-0.83L-22.44-0.83Q-21.56-0.83-21.07-0.91Q-20.58-0.99-20.35-1.15Q-20.12-1.32-20.08-1.57Q-20.03-1.82-20.03-2.17L-20.03-2.17Q-20.03-2.37-20.06-2.55Q-20.09-2.74-20.28-2.88Q-20.46-3.03-20.86-3.11Q-21.26-3.19-21.99-3.19Z"/><path fill="#858585" opacity="1" d="M-9.45 2.58L-9.45 2.58Q-8.65 2.58-8.20 2.50Q-7.75 2.41-7.52 2.29Q-7.29 2.16-7.23 2.01Q-7.17 1.85-7.17 1.72L-7.17 1.72Q-7.17 1.45-7.30 1.30Q-7.42 1.14-7.70 1.05Q-7.97 0.96-8.42 0.93Q-8.87 0.89-9.51 0.88L-9.51 0.88Q-9.88 0.86-10.38 0.83Q-10.89 0.80-11.42 0.71Q-11.95 0.61-12.47 0.42Q-12.99 0.24-13.39-0.09Q-13.80-0.43-14.05-0.93Q-14.30-1.43-14.30-2.16L-14.30-2.16L-14.30-2.35Q-14.30-2.99-14.07-3.57Q-13.85-4.16-13.29-4.60Q-12.74-5.04-11.80-5.30Q-10.86-5.56-9.45-5.56L-9.45-5.56L-8.92-5.56Q-7.90-5.56-6.93-5.44Q-5.97-5.31-5.05-5.07L-5.05-5.07L-5.05-2.63Q-6.13-2.88-7.19-3.03Q-8.25-3.18-9.35-3.18L-9.35-3.18Q-10.15-3.18-10.60-3.10Q-11.06-3.02-11.29-2.89Q-11.52-2.77-11.58-2.62Q-11.64-2.48-11.64-2.35L-11.64-2.35Q-11.64-2.08-11.51-1.92Q-11.39-1.76-11.11-1.67Q-10.83-1.58-10.38-1.54Q-9.94-1.51-9.32-1.49L-9.32-1.49Q-8.96-1.48-8.47-1.46Q-7.98-1.43-7.44-1.34Q-6.90-1.24-6.38-1.05Q-5.85-0.86-5.44-0.52Q-5.02-0.19-4.77 0.32Q-4.51 0.83-4.51 1.56L-4.51 1.56L-4.51 1.75Q-4.51 2.38-4.74 2.96Q-4.97 3.54-5.53 3.98Q-6.09 4.43-7.02 4.69Q-7.96 4.95-9.38 4.95L-9.38 4.95L-9.91 4.95Q-11.08 4.95-12.18 4.82Q-13.28 4.69-14.35 4.47L-14.35 4.47L-14.35 1.99Q-13.15 2.25-11.87 2.41Q-10.59 2.58-9.45 2.58Z"/><path fill="#858585" opacity="1" d="M8.09-5.27L8.09-2.90L1.27-2.90L1.27-1.42L6.61-1.42L6.61 0.95L1.27 0.95L1.27 2.28L8.09 2.28L8.09 4.65L-1.40 4.65L-1.40-5.27L8.09-5.27Z"/><path fill="#858585" opacity="1" d="M10.89 0.08L10.89-0.69Q10.89-1.70 11.14-2.59Q11.39-3.48 12.00-4.13Q12.60-4.79 13.64-5.18Q14.67-5.56 16.24-5.56L16.24-5.56L16.78-5.56Q17.78-5.56 18.73-5.44Q19.68-5.31 20.59-5.07L20.59-5.07L20.59-2.66Q20.08-2.81 19.55-2.91Q19.03-3.02 18.51-3.08Q18.00-3.15 17.54-3.18Q17.07-3.21 16.70-3.21L16.70-3.21Q15.55-3.21 14.92-2.99Q14.29-2.78 14.00-2.40Q13.71-2.01 13.66-1.48Q13.61-0.95 13.61-0.31L13.61-0.31Q13.61 0.33 13.66 0.86Q13.71 1.39 14.00 1.79Q14.29 2.18 14.92 2.39Q15.55 2.61 16.70 2.61L16.70 2.61Q17.07 2.61 17.54 2.58Q18.00 2.55 18.51 2.48Q19.03 2.41 19.55 2.30Q20.08 2.19 20.59 2.04L20.59 2.04L20.59 4.47Q19.68 4.69 18.73 4.82Q17.78 4.95 16.78 4.95L16.78 4.95L16.24 4.95Q14.67 4.95 13.64 4.56Q12.60 4.18 12.00 3.52Q11.39 2.86 11.14 1.97Q10.89 1.08 10.89 0.08L10.89 0.08Z"/><path fill="#858585" opacity="1" d="M31.32-5.27L33.99-5.27L33.99 0.52Q33.99 1.44 33.75 2.24Q33.51 3.04 32.94 3.64Q32.36 4.25 31.38 4.60Q30.41 4.95 28.93 4.95L28.93 4.95L28.39 4.95Q26.91 4.95 25.94 4.60Q24.96 4.25 24.38 3.64Q23.81 3.04 23.57 2.24Q23.33 1.44 23.33 0.52L23.33 0.52L23.33-5.27L26.00-5.27L26.00 0.14Q26.00 0.62 26.04 1.06Q26.09 1.50 26.33 1.84Q26.57 2.18 27.11 2.38Q27.65 2.58 28.66 2.58L28.66 2.58Q29.65 2.58 30.20 2.38Q30.75 2.18 30.99 1.84Q31.24 1.50 31.28 1.06Q31.32 0.62 31.32 0.14L31.32 0.14L31.32-5.27Z"/><path fill="#858585" opacity="1" d="M47.38 4.65L44.81 4.65L42.82 1.54Q42.02 1.54 41.28 1.53Q40.54 1.51 39.83 1.39L39.83 1.39L39.83 4.65L37.17 4.65L37.17-5.27Q38.44-5.41 39.84-5.49Q41.24-5.56 42.59-5.56L42.59-5.56L43.00-5.56Q44.24-5.56 45.06-5.30Q45.87-5.04 46.36-4.60Q46.85-4.16 47.04-3.56Q47.23-2.97 47.23-2.31L47.23-2.31L47.23-1.71Q47.23-0.78 46.86-0.02Q46.49 0.74 45.55 1.16L45.55 1.16L47.38 4.06L47.38 4.65ZM42.62-3.19L42.62-3.19Q42.10-3.19 41.34-3.17Q40.57-3.14 39.83-3.06L39.83-3.06L39.83-0.96Q40.53-0.87 41.15-0.85Q41.77-0.83 42.16-0.83L42.16-0.83Q43.05-0.83 43.53-0.91Q44.02-0.99 44.25-1.15Q44.48-1.32 44.53-1.57Q44.57-1.82 44.57-2.17L44.57-2.17Q44.57-2.37 44.54-2.55Q44.51-2.74 44.33-2.88Q44.14-3.03 43.74-3.11Q43.34-3.19 42.62-3.19Z"/><path fill="#858585" opacity="1" d="M50.51-5.27L53.17-5.27L53.17 4.65L50.51 4.65L50.51-5.27Z"/><path fill="#858585" opacity="1" d="M62.42 4.65L59.76 4.65L59.76-2.90L55.91-2.90L55.91-5.27L66.28-5.27L66.28-2.90L62.42-2.90L62.42 4.65Z"/><path fill="#858585" opacity="1" d="M72.57 4.65L72.57 0.96L68.69-4.67L68.69-5.27L71.31-5.27L73.90-1.15L76.51-5.27L79.11-5.27L79.11-4.67L75.24 0.96L75.24 4.65L72.57 4.65Z"/></g><g transform="matrix(1.290297758087832 0 0 1.290297758087832 250.62000000000003 179.00000000000003)"  >
<path style="stroke: none; stroke-width: 0; stroke-dasharray: none; stroke-linecap: butt; stroke-dashoffset: 0; stroke-linejoin: miter; stroke-miterlimit: 4; fill: rgb(133,133,133); fill-rule: evenodd; opacity: 1;"  transform=" translate(-50.001105593366745, -50.00080183345712)" d="m 95.32 74.918 c -3.4336 -10.926 -11.086 -24.984 -13.254 -26.336 c -1.9219 -1.2109 -3.9531 -2.2344 -6.0703 -3.0625 l 1.7812 -3.125 c 0.082031 -0.14062 0.13672 -0.29688 0.16016 -0.45703 c 0.63672 -4.2773 -1.3789 -9.7734 -2.9961 -14.188 c -0.625 -1.7109 -1.2188 -3.3242 -1.5625 -4.6094 c -1.4062 -5.2695 -7.6133 -11.152 -11.191 -14.191 c -3.2734 -2.7852 -9.418 -7.3867 -12.113 -7.3867 h -0.14844 c -2.6953 0 -8.8398 4.6016 -12.117 7.3867 c -3.5742 3.0391 -9.7812 8.9219 -11.191 14.191 c -0.34375 1.2852 -0.9375 2.8984 -1.5625 4.6094 c -1.6172 4.4141 -3.6328 9.9102 -2.9961 14.188 h 0.003906 c 0.023438 0.16406 0.078125 0.32031 0.16016 0.46094 l 1.7812 3.125 c -2.1172 0.82422 -4.1523 1.8516 -6.0742 3.0586 c -2.1641 1.3555 -9.8203 15.41 -13.25 26.332 v 0.003907 c -1.2578 3.9219 -0.75391 8.1992 1.3867 11.719 c 2.1094 3.4922 5.4805 6.0391 9.4141 7.1211 v 1.4922 v -0.003906 c 0.0625 1.8203 1.5859 3.2461 3.4062 3.1914 h 62.328 c 1.8242 0.054688 3.3477 -1.3711 3.4102 -3.1914 v -1.5195 c 3.9102 -1.1016 7.2539 -3.6602 9.3398 -7.1445 c 2.1133 -3.5117 2.6094 -7.7656 1.3555 -11.664 z m -67.785 -46.258 c 0.64844 -1.7695 1.2578 -3.4375 1.6328 -4.8359 c 0.87109 -3.2539 4.6719 -8.0039 10.176 -12.707 c 5.3438 -4.582 9.6367 -6.8984 10.551 -6.918 c 0.074219 0.007812 0.14844 0.007812 0.21875 0 c 0.91016 0.019531 5.1992 2.3359 10.547 6.9102 c 5.5039 4.707 9.3047 9.4609 10.176 12.707 c 0.375 1.3984 0.98437 3.0703 1.6328 4.8359 v 0.003906 c 1.3516 3.2773 2.3164 6.6992 2.8789 10.199 c -6.3906 -4.9844 -18.055 -9.832 -25.277 -10.219 c -0.046874 -0.003907 -0.09375 -0.003907 -0.14062 0 c -7.2148 0.38672 -18.891 5.2344 -25.277 10.219 c 0.5625 -3.5 1.5312 -6.9219 2.8828 -10.195 z m 22.465 23.461 c -8.1016 -3.9961 -13.449 -8.25 -14.918 -16.391 c 5.1719 -2.418 10.863 -4.2188 14.918 -4.4531 c 4.0547 0.23438 9.7461 2.0391 14.918 4.4492 c -1.4688 8.1445 -6.8164 12.398 -14.918 16.395 z m 7.5703 4.0078 h -15.141 c -0.011719 -1.5547 0.007812 -3.2578 0.0625 -5.25 c 2.2148 1.4609 4.5312 2.7617 6.9336 3.8945 c 0.35938 0.17578 0.78125 0.17578 1.1445 0 c 2.4023 -1.1328 4.7188 -2.4336 6.9336 -3.8945 c 0.058594 1.9922 0.078125 3.6953 0.066406 5.25 z m -38.605 3.1914 v 30.805 h -2.168 c -0.5625 0 -1.0664 0.35938 -1.25 0.89453 c -3.0078 -1.0039 -5.5625 -3.0391 -7.2227 -5.7422 c -1.7656 -2.8711 -2.1758 -6.3711 -1.125 -9.5703 c 3.6328 -11.574 10.902 -23.848 12.156 -24.895 h -0.003907 c 1.8867 -1.1875 3.8867 -2.1836 5.9727 -2.9648 l 4.7227 8.2891 l -7.8906 -0.003907 c -1.7578 0.003907 -3.1836 1.4297 -3.1914 3.1875 z m 59.535 30.805 h -56.895 v -30.805 c 0.003906 -0.30469 0.24609 -0.54687 0.55078 -0.55078 h 55.793 c 0.30469 0.003907 0.54688 0.24609 0.55078 0.55078 z m 13.199 -4.8945 c -1.625 2.7109 -4.1602 4.7539 -7.1523 5.7617 c -0.19141 -0.51953 -0.68359 -0.86719 -1.2383 -0.86719 h -2.168 v -30.805 c -0.003906 -1.7617 -1.4297 -3.1875 -3.1914 -3.1914 h -8 l 4.7227 -8.2891 h 0.003906 c 2.0859 0.78516 4.0859 1.7773 5.9688 2.9648 c 1.25 1.0547 8.5195 13.332 12.156 24.902 c 1.043 3.1836 0.64062 6.6641 -1.1016 9.5234 z m -38.906 -19.66 c -0.59766 -0.93359 -1.6289 -1.5 -2.7422 -1.5 c -1.1094 0 -2.1406 0.56641 -2.7383 1.5 l -10.535 16.441 c -0.64062 1.0039 -0.68359 2.2734 -0.11328 3.3203 c 0.57031 1.043 1.668 1.6914 2.8555 1.6914 h 21.066 c 1.1875 0 2.2812 -0.64844 2.8555 -1.6914 c 0.57031 -1.0469 0.52734 -2.3164 -0.11719 -3.3203 z m -2.7422 17.082 h 0.003907 c -0.59766 0 -1.1367 -0.35938 -1.3672 -0.91016 c -0.23047 -0.55469 -0.10156 -1.1875 0.32031 -1.6133 c 0.42188 -0.42188 1.0586 -0.54688 1.6094 -0.32031 c 0.55469 0.23047 0.91406 0.76953 0.91406 1.3672 c -0.003906 0.81641 -0.66406 1.4766 -1.4766 1.4766 z m 1.6406 -11.602 l -0.6875 7.6797 l -1.9023 0.003906 l -0.6875 -7.6797 c -0.074218 -0.85156 0.91406 -0.92188 0.92188 -0.92188 h 1.4336 c 0.007813 -0.003906 1 0.066407 0.92188 0.91797 z" stroke-linecap="round" />
</g>
</svg>